# xmcd
#
# Track frame offsets: 
#        150
#        14874
#        31028
#        46785
#        60067
#        76388
#        92660
#        106074
#        120216
#        139395
#
# Disc length: 2119 seconds
#
# Revision: 0
# Processed by: cddbd v1.5.1PL0 Copyright (c) Steve Scherf et al.
# Submitted via: ExactAudioCopy v0.95a5
#
DISCID=6d08450a
DTITLE=Jennifer Hicks - Lost In The Magic
DYEAR=2004
DGENRE=Country
TTITLE0=Lost In The Magic
TTITLE1=Could You
TTITLE2=Hello Again
TTITLE3=Rose Garden
TTITLE4=He's In Love With Me
TTITLE5=Something I Didn't Say
TTITLE6=Perfect Sunday
TTITLE7=The Night We Never Met
TTITLE8=Bad Reputation
TTITLE9=THe Rest Of The Story
EXTD=
EXTT0=
EXTT1=
EXTT2=
EXTT3=
EXTT4=
EXTT5=
EXTT6=
EXTT7=
EXTT8=
EXTT9=
PLAYORDER=
